inDegrees=yes
name=ik_Xsens
DataType=double
version=3
OpenSimVersion=4.4-2022-07-23-0e9fedc
endheader
time	pelvis_tilt	pelvis_list	pelvis_rotation	pelvis_tx	pelvis_ty	pelvis_tz	hip_flexion_r	hip_adduction_r	hip_rotation_r	knee_angle_r	knee_angle_r_beta	ankle_angle_r	subtalar_angle_r	mtp_angle_r	hip_flexion_l	hip_adduction_l	hip_rotation_l	knee_angle_l	knee_angle_l_beta	ankle_angle_l	subtalar_angle_l	mtp_angle_l	lumbar_extension	lumbar_bending	lumbar_rotation	arm_flex_r	arm_add_r	arm_rot_r	elbow_flex_r	pro_sup_r	wrist_flex_r	wrist_dev_r	arm_flex_l	arm_add_l	arm_rot_l	elbow_flex_l	pro_sup_l	wrist_flex_l	wrist_dev_l
13.5	0	0	0	0	0.93	0	0	0	0	0	0	0	0	0	0	0	0	0	0	0	0	0	0	0	0	108.2207600229238	24.10766899206632	35.67431997446464	-107.6908458581275	-40.30185843698797	0	0	-2.202584799175574	4.390235602349381	-0.5926525493115787	182.2418770360763	21.86413204116539	0	0
13.51666666666667	0	0	0	0	0.93	0	0	0	0	1.142582304836038e-39	9.37529911873625e-41	0	0	0	0	0	0	0	4.626281764809674e-41	0	0	0	0	0	0	113.208247661129	20.79894587980504	37.32328623224316	-105.182408354243	-33.26238666752651	0	0	-2.11565359915213	3.900053793323752	-0.5780943554443666	182.256921144223	25.77352351322253	0	0
13.53333333333333	-2.321719195576197e-25	2.896563146022314e-26	-2.489305712464727e-25	-2.27871670355324e-27	0.93	2.89796602705511e-27	-1.235328511644488e-16	-1.06209666558659e-17	-2.671349299058009e-15	0	-3.014372965843689e-17	3.787136445308957e-22	-1.369257096236989e-21	2.458185456893012e-20	-2.494020320448702e-15	7.082973917765557e-17	3.053846905755703e-15	6.238805163640979e-17	1.964742428833614e-16	6.199316231850159e-22	3.764162635843848e-21	-5.872833828218501e-20	-1.285295936476351e-15	3.056285233735756e-16	-1.99775878744448e-15	119.3131610342281	17.29401832867649	39.20366093151009	-102.9203154771371	-25.22670831668944	8.817045584959689e-21	2.0411055035415e-20	-2.033842081115306	3.430749411440567	-0.6653536315538442	181.3560486743318	32.77480224022406	5.239983588335496e-21	-2.709385857582306e-22
13.55	0	0	0	0	0.93	0	0	0	0	0	6.141154326392913e-41	0	0	0	0	0	0	0	3.096232980298139e-41	0	0	0	0	0	0	126.5757535594599	13.80405415971448	41.2123644796268	-101.1011061100832	-16.32911096518975	0	0	-2.030224139028107	3.382280829922993	-0.8577877297322914	179.4425454145699	41.85695047565795	0	0
13.56666666666667	8.149493420759789e-25	2.213916305790275e-15	-4.220078892002606e-27	2.192293719356425e-24	0.93	1.085839487727391e-23	-3.047910801095634e-34	-3.654602380795179e-22	0	6.62528440950294e-17	1.213065497836031e-18	2.025865386826862e-19	-2.497283742136811e-19	-5.119159062977131e-17	-5.296298168143264e-22	1.392256739385666e-30	3.46351704499214e-21	7.259831023444202e-17	1.267075574415074e-18	-5.315302349408833e-19	-3.381085829317187e-20	-5.551700312196347e-17	4.932093335229639e-25	-8.632860384482995e-25	-7.561218315460995e-24	129.3744551381	12.78301627431069	41.141171643741	-100.9003096922424	-13.58523844776102	7.899038713320678e-18	1.735016951475209e-16	-2.224408993486271	4.2628666246072	-1.132990350732263	177.5962446390481	51.30854837397195	2.880501302333126e-19	8.689700786736239e-18
13.58333333333333	0	0	0	0	0.93	0	0	0	0	0	0	0	0	0	0	0	0	0	0	0	0	0	0	0	0	131.2953833105591	11.61519748244869	40.87860199678227	-100.2910390092629	-11.41243099768197	0	0	-2.430704914263575	5.199804966090308	-1.33648165059961	176.6839770283812	59.91416590514853	0	0
13.6	0	0	0	0	0.93	0	0	0	0	0	0	0	0	0	0	0	0	0	0	0	0	0	0	0	0	132.3140671358625	11.02179784100477	41.43616781471769	-99.95832304089109	-10.15177382221522	0	0	-2.56303475382489	5.699538074719607	-1.431149224103984	176.3851219620364	65.84593175719857	0	0
13.61666666666667	0	0	0	0	0.93	0	0	0	0	0	-2.465190328815662e-32	0	0	0	0	0	0	0	0	0	0	0	0	0	0	133.3924645615587	10.79494640259742	41.36120977694407	-100.0667324975513	-9.118866769527672	0	0	-2.772044207525071	6.565504805659138	-1.456946420219209	176.847605689428	75.06639479391477	0	0
13.63333333333333	0	0	0	0	0.93	0	0	0	0	2.426125882429622e-39	0	0	0	0	0	0	0	0	0	0	0	0	0	0	0	134.3178321814928	10.9510805909455	40.47361963707755	-100.5351383868341	-8.54079498880899	0	0	-2.946302660963243	7.233842640199454	-1.401178069164969	177.6680387839029	84.21032233772301	0	0
13.65	-3.941551585378311e-26	-1.019504130515814e-17	2.935066696492858e-26	1.277832138794977e-26	0.93	1.409777387432653e-26	4.887502047586107e-35	2.628771352757409e-25	6.403376835670357e-38	3.396267869964138e-16	5.927598822886328e-18	4.431744389185145e-21	1.261321894156932e-21	-8.827082931346769e-17	5.3247278974442e-26	-1.778062839790713e-34	1.118243386310792e-24	3.383393375219537e-16	5.905134968479208e-18	1.675113545863553e-24	-3.877621813561745e-22	-1.014898092936924e-16	-1.265951254105807e-26	-3.513676797876649e-26	-1.811671633067336e-24	134.9675181539686	10.68085654824673	40.1009222794081	-100.4849719157985	-7.666337840309549	-2.108202506663735e-19	3.136311739647129e-16	-3.112174900348328	7.747313456657281	-1.36079830489977	178.1934285959336	90.65830485057243	6.516280136140695e-18	6.464286508320621e-18
13.66666666666667	0	0	0	0	0.93	0	0	0	0	2.41560674021122e-38	7.774890109430145e-41	0	0	0	0	0	0	7.573966829471778e-39	-2.895930835376634e-40	0	0	0	0	0	0	135.0172250719981	9.81617852846691	40.366355578192	-99.62527596485	-6.921891909351096	0	0	-3.157991496256751	8.186819207668126	-1.378480302621091	178.2271632320904	93.85179893605621	0	0
13.68333333333333	0	0	0	0	0.93	0	0	0	0	0	-5.087693667302042e-41	0	0	0	0	0	0	0	8.623391981288964e-42	0	0	0	0	0	0	135.1580989586999	9.059596250071356	40.85784885363297	-98.84738176102469	-6.097571302494615	0	0	-3.320024552470465	8.87483191562877	-1.499962247800144	177.8629635727793	95.72622273930378	0	0
13.7	0	0	0	0	0.93	0	0	0	0	4.963063925139008e-39	-1.401678072178704e-40	0	0	0	0	0	0	2.332170755467617e-39	1.353386812561032e-40	0	0	0	0	0	0	135.5062950117397	8.218632915209112	41.27246013425255	-98.03210082332258	-5.040389653657254	0	0	-3.447031972186161	9.299563932708558	-1.565980628949577	177.7699949301314	96.52065020078828	0	0
13.71666666666667	0	0	0	0	0.93	0	0	0	0	1.798359258080003e-39	1.410281299369036e-41	0	0	0	0	0	0	1.798364276110493e-39	-1.447971549652025e-41	0	0	0	0	0	0	135.9479886253492	7.633205536679818	41.52637664074185	-97.5426567794034	-4.174137101469462	0	0	-3.504052421153709	9.379618204428152	-1.441502401948038	178.3809612639482	98.30845592959979	0	0
13.73333333333333	1.430713414775307e-28	-4.222559683138343e-21	-2.567687400052893e-27	2.522072879880614e-21	0.93	-1.203706215242022e-35	1.285117439588042e-28	-2.34819517289206e-19	-2.415049573747631e-19	0	-1.184492251490524e-17	6.950140868267823e-22	-3.393678114993868e-24	1.724986410895596e-19	-5.209240855146278e-20	-3.130176588675112e-19	4.265584820239118e-21	0	-1.18449229767482e-17	2.935007571700742e-24	9.076458531244597e-25	-6.595041659690504e-20	3.86451096321809e-18	2.884099489142344e-19	-3.642063391527491e-20	136.0672088575193	7.497337715300348	41.74076483936571	-97.43750273402078	-3.885910845521988	3.629923318107653e-22	-1.91531295576226e-21	-3.497294451415965	9.477485880037856	-1.417825951313756	178.5248437424657	99.31019231314485	-3.249251541547628e-22	4.904973811859961e-22
13.75	0	0	0	0	0.93	0	0	0	0	0	0	0	0	0	0	0	0	0	0	0	0	0	0	0	0	136.3585204081075	7.731152026735798	41.92426398816255	-97.68599045208852	-3.52265234122468	0	0	-3.582985433312377	9.833268353372384	-1.479651544349691	178.4801098945745	100.1125194624673	0	0
13.76666666666667	0	0	0	0	0.93	0	0	0	0	0	0	0	0	0	0	0	0	0	0	0	0	0	0	0	0	136.4537836640661	7.879260063216197	41.7668266123102	-97.81470109980209	-3.496600604339076	0	0	-3.735042914672732	10.32536083935313	-1.51077276318001	178.4264857221664	100.2650575792771	0	0
13.78333333333333	0	0	0	0	0.93	0	0	0	0	0	0	0	0	0	0	0	0	0	0	0	0	0	0	0	0	136.321361979536	7.971404428838076	41.57547021462954	-97.83267510030336	-3.578101846810665	0	0	-3.883333605725639	10.90578502357422	-1.582954295169527	178.1630317330914	99.89098142646453	0	0
